<svg xmlns="http://www.w3.org/2000/svg" xmlns:xlink="http://www.w3.org/1999/xlink" width="100px" height="18px" viewBox="0 0 97 18" version="1.1">
<g id="surface1">
<path style=" stroke:none;fill-rule:evenodd;fill:rgb(0%,61.568627%,87.843137%);fill-opacity:1;" d="M 77.535156 9.375 L 77.535156 9.386719 C 77.535156 9.386719 75.792969 14.054688 68.683594 17.585938 L 73.046875 17.585938 C 76.148438 17.585938 78.414062 15.59375 78.570312 12.742188 C 78.683594 10.664062 78.011719 9.753906 77.535156 9.375 "></path>
<path style=" stroke:none;fill-rule:evenodd;fill:rgb(0%,61.568627%,87.843137%);fill-opacity:1;" d="M 68.5625 7.3125 L 68.5625 3.195312 L 72.074219 3.195312 C 73.566406 3.195312 74.457031 3.929688 74.457031 5.160156 C 74.457031 6.46875 73.542969 7.3125 72.121094 7.3125 Z M 74.410156 11.15625 C 77.820312 8.484375 77.820312 5.609375 77.820312 5.152344 C 77.820312 4.695312 77.820312 5.128906 77.820312 5.128906 C 77.820312 2.089844 76.175781 0.296875 73.316406 0.210938 L 65.117188 0.210938 C 64.863281 0.210938 64.652344 0.421875 64.652344 0.679688 L 64.652344 16.355469 C 66.109375 15.882812 67.410156 15.371094 68.5625 14.851562 L 68.5625 10.175781 L 72.246094 10.175781 C 73.289062 10.175781 74.035156 10.523438 74.410156 11.15625 Z M 74.410156 11.15625 "></path>
<path style=" stroke:none;fill-rule:evenodd;fill:rgb(0%,61.568627%,87.843137%);fill-opacity:1;" d="M 96.441406 14.839844 L 90.75 14.839844 L 96.65625 7.488281 C 96.746094 7.390625 96.792969 7.261719 96.792969 7.125 L 96.792969 5.507812 C 96.792969 5.195312 96.535156 4.929688 96.222656 4.929688 L 87.601562 4.929688 C 87.347656 4.929688 87.136719 5.140625 87.136719 5.398438 L 87.136719 6.914062 C 87.136719 7.230469 87.386719 7.488281 87.703125 7.488281 L 92.789062 7.488281 L 86.863281 14.933594 C 86.78125 15.03125 86.734375 15.160156 86.734375 15.296875 L 86.734375 16.914062 C 86.734375 17.234375 86.984375 17.492188 87.300781 17.492188 L 96.441406 17.492188 C 96.75 17.492188 97 17.234375 97 16.914062 L 97 15.414062 C 97 15.097656 96.75 14.839844 96.441406 14.839844 "></path>
<path style=" stroke:none;fill-rule:evenodd;fill:rgb(0%,61.568627%,87.843137%);fill-opacity:1;" d="M 83.71875 4.929688 L 81.300781 4.929688 C 81.046875 4.929688 80.839844 5.140625 80.839844 5.398438 L 80.839844 17.019531 C 80.839844 17.28125 81.046875 17.492188 81.300781 17.492188 L 83.71875 17.492188 C 83.96875 17.492188 84.175781 17.28125 84.175781 17.019531 L 84.175781 5.398438 C 84.175781 5.140625 83.96875 4.929688 83.71875 4.929688 "></path>
<path style=" stroke:none;fill-rule:evenodd;fill:rgb(11.764706%,19.215686%,24.313725%);fill-opacity:1;" d="M 28.441406 12.855469 C 28.441406 14.605469 27.132812 15.238281 25.953125 15.238281 C 24.484375 15.238281 23.363281 14.363281 23.363281 12.902344 L 23.363281 9.929688 C 23.363281 8.1875 24.671875 7.546875 25.859375 7.546875 C 27.320312 7.546875 28.441406 8.398438 28.441406 9.859375 Z M 25.859375 5.09375 C 23.226562 5.09375 20.476562 6.886719 20.476562 10.164062 L 20.476562 12.929688 C 20.476562 16.015625 23.0625 17.667969 25.953125 17.667969 C 28.578125 17.667969 31.328125 15.875 31.328125 12.597656 L 31.328125 10.117188 C 31.328125 7.03125 28.742188 5.09375 25.859375 5.09375 Z M 41.46875 12.988281 C 41.46875 14.734375 40.164062 15.367188 38.972656 15.367188 C 37.507812 15.367188 36.386719 14.492188 36.386719 13.035156 L 36.386719 10.058594 C 36.386719 8.316406 37.691406 7.675781 38.882812 7.675781 C 40.347656 7.675781 41.46875 8.527344 41.46875 9.988281 Z M 33.480469 11.824219 L 33.503906 13.058594 C 33.503906 16.144531 36.085938 17.796875 38.972656 17.796875 C 41.609375 17.796875 44.359375 16.003906 44.359375 12.726562 L 44.359375 10.246094 C 44.359375 7.160156 42.085938 4.996094 38.882812 5.222656 C 37.941406 5.292969 37.074219 5.695312 36.324219 6.3125 L 36.324219 0.714844 C 36.324219 0.457031 36.113281 0.246094 35.855469 0.246094 L 33.941406 0.246094 C 33.691406 0.246094 33.480469 0.457031 33.480469 0.714844 Z M 12.96875 5.597656 L 12.96875 5.714844 C 12.96875 5.9375 12.789062 6.117188 12.574219 6.117188 L 10.265625 6.117188 C 10.144531 6.117188 10.035156 6.011719 10.035156 5.882812 C 10.039062 3.6875 8.152344 3.050781 6.636719 3.050781 C 5.050781 3.050781 3.078125 3.898438 3.078125 6.304688 L 3.078125 11.683594 C 3.078125 13.710938 4.796875 14.863281 6.753906 14.863281 C 8.5 14.863281 10.035156 14.011719 10.035156 11.824219 C 10.035156 11.601562 9.859375 11.417969 9.636719 11.417969 L 6.21875 11.417969 C 5.960938 11.417969 5.75 11.207031 5.75 10.949219 L 5.75 9.058594 C 5.75 8.800781 5.960938 8.589844 6.21875 8.589844 L 12.574219 8.589844 C 12.789062 8.589844 12.96875 8.773438 12.96875 8.996094 L 12.96875 12.105469 C 12.96875 15.851562 9.917969 17.644531 6.753906 17.644531 C 3.144531 17.644531 0 15.59375 0 11.847656 L 0 6.46875 C 0 2.488281 3.007812 0.269531 6.636719 0.269531 C 9.800781 0.269531 12.96875 1.847656 12.96875 5.597656 Z M 62.011719 0.671875 L 62.011719 16.964844 C 62.011719 17.222656 61.804688 17.433594 61.546875 17.433594 L 59.636719 17.433594 C 59.378906 17.433594 59.167969 17.222656 59.167969 16.964844 L 59.167969 0.671875 C 59.167969 0.414062 59.378906 0.203125 59.636719 0.203125 L 61.546875 0.203125 C 61.804688 0.203125 62.011719 0.414062 62.011719 0.671875 Z M 17.800781 0.203125 L 15.882812 0.203125 C 15.628906 0.203125 15.421875 0.414062 15.421875 0.671875 L 15.421875 16.964844 C 15.421875 17.222656 15.628906 17.433594 15.882812 17.433594 L 17.800781 17.433594 C 18.058594 17.433594 18.261719 17.222656 18.261719 16.964844 L 18.261719 0.671875 C 18.261719 0.414062 18.058594 0.203125 17.800781 0.203125 Z M 53.90625 12.871094 C 53.90625 14.171875 53.535156 15.300781 51.25 15.300781 C 49.921875 15.300781 49.105469 14.785156 49.105469 13.765625 C 49.105469 12.707031 49.898438 12.285156 51.109375 12.285156 L 53.90625 12.285156 Z M 56.734375 8.542969 C 56.566406 5.847656 54.199219 5.019531 51.648438 5.019531 C 49.410156 5.019531 46.917969 5.914062 46.917969 8.554688 C 46.917969 8.738281 47.0625 8.890625 47.242188 8.890625 L 49.058594 8.890625 C 49.292969 8.890625 49.480469 8.695312 49.480469 8.460938 C 49.480469 7.683594 50.390625 7.261719 51.625 7.261719 C 53.070312 7.261719 53.90625 7.800781 53.90625 9.078125 L 53.90625 10.183594 L 50.132812 10.183594 C 48.09375 10.183594 46.378906 11.8125 46.339844 13.859375 C 46.339844 13.894531 46.339844 14.265625 46.363281 14.40625 C 46.363281 14.40625 46.363281 14.40625 46.363281 14.410156 C 47.242188 18.890625 53.382812 17.597656 54.269531 17.242188 C 56.460938 16.351562 56.734375 14.890625 56.746094 14.445312 C 56.773438 13.300781 56.746094 9.339844 56.746094 8.867188 C 56.746094 8.753906 56.746094 8.648438 56.734375 8.542969 Z M 56.734375 8.542969 "></path>
<path style=" stroke:none;fill-rule:evenodd;fill:rgb(0%,61.568627%,87.843137%);fill-opacity:1;" d="M 83.71875 3.59375 L 81.300781 3.59375 C 81.042969 3.59375 80.832031 3.382812 80.832031 3.125 L 80.832031 0.679688 C 80.832031 0.414062 81.042969 0.210938 81.300781 0.210938 L 83.71875 0.210938 C 83.972656 0.210938 84.183594 0.414062 84.183594 0.679688 L 84.183594 3.125 C 84.183594 3.382812 83.972656 3.59375 83.71875 3.59375 "></path>
</g>
</svg>