<?xml version="1.0" encoding="UTF-8"?>
<svg width="18px" height="18px" viewBox="0 0 18 18" version="1.1" xmlns="http://www.w3.org/2000/svg" xmlns:xlink="http://www.w3.org/1999/xlink">
    <!-- Generator: Sketch 62 (91390) - https://sketch.com -->
    <title>Magnifying glass</title>
    <desc>Created with Sketch.</desc>
    <g id="Magnifying-glass" stroke="none" stroke-width="1" fill="none" fill-rule="evenodd">
        <path d="M6.68953697,1.77635684e-15 C10.3842196,1.77635684e-15 13.3790739,2.99485433 13.3790739,6.68953697 C13.3790739,8.34648383 12.7718701,9.86963947 11.7632938,11.0428813 L11.7632938,11.0428813 L12.0514582,11.3207549 L12.8644942,11.3207549 L18,16.4665525 L16.4665525,18 L11.3207549,12.8644942 L11.3207549,12.0514582 L11.0428813,11.7632938 C9.86963947,12.7718701 8.34648383,13.3790739 6.68953697,13.3790739 C2.99485433,13.3790739 1.77635684e-15,10.3842196 1.77635684e-15,6.68953697 C1.77635684e-15,2.99485433 2.99485433,1.77635684e-15 6.68953697,1.77635684e-15 Z M6.68953697,2.05831907 C4.12692972,2.05831907 2.05831907,4.12692972 2.05831907,6.68953697 C2.05831907,9.25214421 4.12692972,11.3207549 6.68953697,11.3207549 C9.25214421,11.3207549 11.3207549,9.25214421 11.3207549,6.68953697 C11.3207549,4.12692972 9.25214421,2.05831907 6.68953697,2.05831907 Z" id="magnifying-glass" fill="#3a3a3a" fill-rule="nonzero"></path>
    </g>
</svg>